<?xml version="1.0" encoding="UTF-8"?>
<!DOCTYPE svg PUBLIC "-//W3C//DTD SVG 1.1//EN" "http://www.w3.org/Graphics/SVG/1.1/DTD/svg11.dtd">
<svg version="1.1" xmlns="http://www.w3.org/2000/svg" xmlns:xlink="http://www.w3.org/1999/xlink" x="0" y="0" width="89.64" height="67.56" viewBox="0, 0, 89.64, 67.56">
  <g id="Layer_1" transform="translate(-550.046, -163.673)">
    <g id="ACSDLogo">
      <g>
        <path d="M595.553,231.233 C581.146,231.233 568.79,227.103 563.508,221.223 L562.782,220.123 L553.59,220.123 L563.837,214.313 L578.544,220.123 L569.207,220.123 L571.267,222.433 C576.25,226.983 585.287,230.033 595.592,230.033 C609.341,230.033 620.816,224.623 623.468,217.433 L624.029,214.313 L630.24,214.313 L630.337,214.853 C630.337,223.903 614.769,231.233 595.553,231.233 z" fill="#005E58"/>
        <path d="M594.179,163.673 C608.577,163.673 620.942,167.803 626.225,173.683 L626.951,174.783 L636.143,174.783 L625.896,180.593 L611.189,174.783 L620.526,174.783 L618.465,172.473 C613.482,167.923 604.445,164.873 594.141,164.873 C580.392,164.873 568.916,170.283 566.265,177.473 L565.704,180.593 L559.492,180.593 L559.395,180.053 C559.395,171.003 574.964,163.673 594.179,163.673 z" fill="#005E58"/>
      </g>
      <g>
        <path d="M587.636,182.213 C589.346,182.213 590.726,183.593 590.726,185.303 L590.726,209.603 C590.726,211.313 589.346,212.693 587.636,212.693 L553.136,212.693 C551.426,212.693 550.046,211.313 550.046,209.603 L550.046,185.303 C550.046,183.593 551.426,182.213 553.136,182.213 L587.636,182.213 z M581.957,185.782 C576.43,185.782 572.881,190.286 572.881,197.349 C572.881,204.96 576.259,209.123 581.65,209.123 C584.346,209.123 585.779,208.269 586.223,207.996 C586.496,207.825 586.734,207.45 586.53,207.007 L585.779,205.369 C585.609,205.028 585.233,204.891 584.823,205.062 C584.517,205.199 583.288,205.846 581.889,205.846 C578.989,205.846 576.736,203.458 576.736,197.384 C576.736,191.344 578.818,188.956 582.162,188.956 C583.493,188.956 584.346,189.399 584.756,189.604 C585.199,189.809 585.54,189.638 585.745,189.263 L586.462,187.864 C586.667,187.454 586.53,187.01 586.12,186.771 C585.439,186.363 584.414,185.782 581.957,185.782 z M564.509,186.021 L561.198,186.021 C560.755,186.021 560.277,186.294 560.141,186.771 L554.204,207.928 C554.067,208.44 554.306,208.884 554.818,208.884 L557.036,208.884 C557.513,208.884 557.923,208.576 558.026,208.133 L559.322,203.083 L566.488,203.083 L567.887,208.133 C568.023,208.576 568.467,208.884 568.945,208.884 L571.333,208.884 C571.845,208.884 572.084,208.44 571.948,207.928 L565.566,186.771 C565.43,186.294 564.953,186.021 564.509,186.021 z M562.837,187.897 C562.972,188.819 563.109,190.014 563.348,190.935 L565.669,199.943 L560.107,199.943 L562.325,190.935 C562.564,189.979 562.734,188.853 562.837,187.897 z" fill="#005E58"/>
        <path d="M636.596,182.213 C638.306,182.213 639.686,183.593 639.686,185.303 L639.686,209.603 C639.686,211.313 638.306,212.693 636.596,212.693 L602.096,212.693 C600.386,212.693 599.006,211.313 599.006,209.603 L599.006,185.303 C599.006,183.593 600.386,182.213 602.096,182.213 L636.596,182.213 z M610.696,185.38 C606.328,185.38 603.735,187.939 603.735,191.556 C603.735,195.309 606.055,196.674 608.342,197.8 L609.877,198.551 C611.651,199.404 612.982,200.257 612.982,202.202 C612.982,204.285 611.754,205.443 609.502,205.443 C607.592,205.443 605.51,204.659 604.93,204.454 C604.451,204.285 604.008,204.522 603.905,204.966 L603.497,206.672 C603.393,207.082 603.564,207.526 604.008,207.697 C604.691,207.935 606.84,208.686 609.535,208.686 C614.278,208.686 616.803,205.955 616.803,201.964 C616.803,198.448 615.064,196.777 612.811,195.651 L611.037,194.763 C609.195,193.841 607.522,193.091 607.522,191.351 C607.522,189.474 608.545,188.518 610.764,188.518 C612.607,188.518 613.665,189.065 614.278,189.235 C614.722,189.372 615.132,189.099 615.235,188.689 L615.575,187.154 C615.678,186.744 615.541,186.334 615.132,186.165 C614.585,185.925 612.744,185.38 610.696,185.38 z M626.593,185.601 L621.201,185.601 C620.758,185.601 620.381,185.976 620.381,186.42 L620.381,207.645 C620.381,208.089 620.758,208.464 621.201,208.464 L626.764,208.464 C633.246,208.464 635.225,204.199 635.225,196.897 C635.225,188.126 631.439,185.601 626.593,185.601 z M626.251,188.638 C627.719,188.638 629.015,189.116 629.868,190.174 C630.926,191.47 631.404,193.449 631.404,197.1 C631.404,203.96 629.528,205.324 626.183,205.324 L623.999,205.324 L623.999,188.638 L626.251,188.638 z" fill="#005E58"/>
      </g>
    </g>
  </g>
</svg>
