<?xml version="1.0" encoding="UTF-8"?>
<!DOCTYPE svg PUBLIC "-//W3C//DTD SVG 1.1//EN" "http://www.w3.org/Graphics/SVG/1.1/DTD/svg11.dtd">
<svg version="1.1" xmlns="http://www.w3.org/2000/svg" xmlns:xlink="http://www.w3.org/1999/xlink" x="0" y="0" width="272.501" height="140.153" viewBox="0, 0, 272.501, 140.153">
  <g id="Layer_1" transform="translate(-168.062, -168.24)">
    <g id="TUCLogo">
      <path d="M312.197,174.12 C311.002,171.725 309.205,169.946 306.755,168.857 C305.661,168.362 304.508,168.137 303.309,168.285 C300.811,168.587 298.908,169.92 297.359,171.806 C296.658,172.665 296.116,173.613 295.783,174.701 L312.433,174.701 C312.341,174.47 312.283,174.283 312.197,174.12" fill="#005E58"/>
      <path d="M334.558,174.86 C335.768,174.86 336.702,173.934 336.696,172.739 C336.69,171.553 335.746,170.641 334.532,170.648 C333.358,170.654 332.432,171.574 332.426,172.739 C332.412,173.926 333.358,174.86 334.558,174.86" fill="#005E58"/>
      <path d="M318.116,174.86 C319.36,174.876 320.28,173.989 320.286,172.783 C320.29,171.582 319.403,170.662 318.224,170.648 C316.977,170.633 316.062,171.514 316.057,172.734 C316.045,173.926 316.93,174.84 318.116,174.86" fill="#005E58"/>
      <path d="M273.735,174.86 C274.933,174.854 275.826,173.963 275.826,172.759 C275.834,171.545 274.917,170.648 273.694,170.648 C272.497,170.654 271.597,171.559 271.589,172.747 C271.589,173.963 272.503,174.86 273.735,174.86" fill="#005E58"/>
      <path d="M290.113,174.86 C291.329,174.86 292.257,173.926 292.246,172.73 C292.23,171.553 291.3,170.648 290.113,170.648 C288.923,170.648 288.013,171.545 287.997,172.73 C287.975,173.934 288.896,174.86 290.113,174.86" fill="#005E58"/>
      <path d="M343.648,188.994 C343.636,189.926 343.158,190.447 342.218,190.468 C340.848,190.497 339.468,190.505 338.091,190.46 C337.112,190.435 336.629,189.887 336.621,188.89 C336.611,187.474 336.611,186.063 336.621,184.647 C336.629,183.635 337.153,183.104 338.158,183.089 C339.493,183.077 340.836,183.077 342.173,183.089 C343.131,183.104 343.636,183.606 343.648,184.571 C343.656,185.309 343.648,186.041 343.648,186.785 C343.648,187.516 343.661,188.252 343.648,188.994 M343.648,199.136 C343.648,199.874 343.652,200.61 343.648,201.342 C343.64,202.257 343.17,202.799 342.289,202.817 C340.871,202.844 339.45,202.854 338.04,202.817 C337.173,202.791 336.636,202.243 336.629,201.364 C336.601,199.874 336.593,198.378 336.629,196.886 C336.642,195.993 337.204,195.451 338.105,195.437 C339.485,195.416 340.858,195.416 342.24,195.437 C343.156,195.451 343.64,195.986 343.648,196.925 C343.652,197.665 343.648,198.402 343.648,199.136 M343.648,211.488 C343.648,212.242 343.661,212.996 343.648,213.75 C343.636,214.637 343.119,215.16 342.236,215.169 C340.856,215.187 339.481,215.187 338.101,215.169 C337.173,215.16 336.632,214.609 336.625,213.67 C336.603,212.215 336.603,210.766 336.629,209.305 C336.632,208.371 337.145,207.829 338.099,207.802 C339.475,207.766 340.852,207.766 342.224,207.802 C343.19,207.829 343.648,208.36 343.648,209.333 C343.652,210.053 343.648,210.766 343.648,211.488 M343.648,223.861 C343.648,224.583 343.652,225.3 343.648,226.018 C343.644,226.944 343.238,227.493 342.33,227.534 C340.881,227.598 339.419,227.598 337.972,227.528 C337.087,227.487 336.632,226.911 336.625,226.012 C336.603,224.575 336.603,223.142 336.625,221.707 C336.632,220.685 337.194,220.156 338.238,220.148 C339.536,220.143 340.836,220.143 342.128,220.148 C343.117,220.156 343.64,220.671 343.648,221.652 C343.652,222.392 343.648,223.128 343.648,223.861 M332.413,201.137 C332.397,202.153 331.704,202.817 330.676,202.83 C329.218,202.84 327.763,202.83 326.31,202.83 C324.897,202.83 323.483,202.84 322.062,202.83 C320.916,202.825 320.262,202.194 320.248,201.033 C320.235,199.739 320.235,198.439 320.248,197.139 C320.27,196.08 320.922,195.437 321.971,195.437 C324.897,195.424 327.826,195.424 330.751,195.437 C331.742,195.437 332.397,196.07 332.413,197.062 C332.439,198.419 332.439,199.778 332.413,201.137 M332.401,213.628 C332.384,214.533 331.677,215.165 330.766,215.169 C329.275,215.177 327.781,215.169 326.293,215.169 C324.838,215.169 323.383,215.177 321.928,215.169 C320.977,215.169 320.29,214.56 320.262,213.607 C320.231,212.191 320.235,210.774 320.262,209.36 C320.286,208.469 320.922,207.808 321.815,207.802 C324.838,207.774 327.859,207.774 330.884,207.802 C331.745,207.808 332.392,208.462 332.401,209.327 C332.439,210.762 332.441,212.191 332.401,213.628 M332.392,225.821 C332.392,226.833 331.706,227.561 330.694,227.561 C327.763,227.585 324.838,227.585 321.909,227.561 C320.932,227.561 320.262,226.874 320.248,225.909 C320.235,224.534 320.235,223.154 320.248,221.775 C320.262,220.8 320.932,220.156 321.919,220.148 C323.409,220.143 324.901,220.148 326.396,220.148 C327.826,220.148 329.263,220.143 330.7,220.148 C331.742,220.148 332.392,220.806 332.392,221.864 C332.397,223.181 332.397,224.501 332.392,225.821 M331.689,232.697 C331.481,232.73 331.264,232.714 331.056,232.714 C313.096,232.722 295.144,232.722 277.196,232.714 C276.98,232.714 276.763,232.73 276.555,232.697 C275.937,232.601 275.79,232.407 275.835,231.706 L332.384,231.706 C332.439,232.393 332.307,232.593 331.689,232.697 M275.807,221.887 C275.813,220.824 276.479,220.148 277.546,220.148 C279.001,220.143 280.454,220.148 281.906,220.148 C283.369,220.148 284.818,220.143 286.272,220.148 C287.277,220.148 287.968,220.814 287.98,221.809 C288.005,223.15 288.005,224.487 287.98,225.826 C287.968,226.884 287.277,227.561 286.218,227.571 C283.343,227.577 280.473,227.577 277.603,227.571 C276.5,227.561 275.813,226.843 275.807,225.73 C275.798,224.444 275.798,223.168 275.807,221.887 M287.984,209.564 C287.997,210.842 287.997,212.129 287.984,213.403 C287.976,214.521 287.308,215.169 286.218,215.169 C284.763,215.177 283.308,215.169 281.853,215.169 C280.418,215.169 278.983,215.177 277.548,215.169 C276.506,215.169 275.813,214.472 275.807,213.421 C275.798,212.129 275.798,210.829 275.807,209.532 C275.813,208.481 276.452,207.786 277.489,207.786 C280.41,207.766 283.343,207.766 286.269,207.786 C287.336,207.786 287.978,208.481 287.984,209.564 M286.157,202.83 C284.741,202.84 283.33,202.83 281.912,202.83 C280.481,202.83 279.042,202.84 277.603,202.83 C276.485,202.817 275.813,202.141 275.807,201.014 C275.798,199.729 275.798,198.455 275.807,197.174 C275.813,196.095 276.463,195.437 277.544,195.431 L286.212,195.431 C287.314,195.437 287.978,196.095 287.984,197.209 C287.997,198.466 287.997,199.729 287.984,200.986 C287.978,202.173 287.326,202.825 286.157,202.83 M275.807,184.872 C275.813,183.715 276.444,183.089 277.607,183.083 L281.914,183.083 C283.347,183.083 284.784,183.083 286.218,183.089 C287.324,183.089 287.978,183.745 287.984,184.861 C287.997,186.139 288.001,187.422 287.984,188.696 C287.976,189.797 287.302,190.48 286.212,190.48 C283.361,190.497 280.51,190.497 277.658,190.48 C276.453,190.48 275.807,189.804 275.799,188.592 C275.798,187.349 275.798,186.118 275.807,184.872 M271.59,201.378 C271.576,202.194 271.087,202.778 270.282,202.799 C268.786,202.84 267.294,202.84 265.806,202.799 C265.064,202.778 264.596,202.235 264.59,201.503 C264.575,199.927 264.575,198.357 264.588,196.788 C264.592,195.993 265.084,195.465 265.887,195.443 C267.322,195.416 268.757,195.416 270.19,195.443 C271.055,195.465 271.576,196.035 271.59,196.9 C271.6,197.656 271.59,198.413 271.59,199.167 C271.59,199.909 271.606,200.642 271.59,201.378 M269.932,227.571 C268.751,227.585 267.568,227.577 266.386,227.571 C266.137,227.571 265.881,227.547 265.636,227.493 C264.966,227.348 264.602,226.901 264.588,226.222 C264.571,225.429 264.583,224.63 264.583,223.835 C264.583,223.079 264.575,222.324 264.583,221.57 C264.596,220.685 265.107,220.162 265.994,220.148 C267.357,220.139 268.714,220.143 270.071,220.148 C271.02,220.162 271.588,220.732 271.59,221.679 C271.598,223.074 271.598,224.473 271.59,225.866 C271.59,226.993 271.069,227.547 269.932,227.571 M264.583,209.223 C264.592,208.371 265.043,207.835 265.873,207.808 C267.329,207.774 268.784,207.774 270.231,207.815 C271.073,207.835 271.584,208.42 271.59,209.251 C271.598,210.737 271.598,212.234 271.59,213.73 C271.584,214.59 271.046,215.152 270.178,215.165 C268.761,215.193 267.345,215.187 265.935,215.165 C265.084,215.152 264.592,214.623 264.583,213.76 C264.575,213.004 264.583,212.242 264.583,211.488 C264.583,210.733 264.575,209.979 264.583,209.223 M264.583,184.506 C264.592,183.635 265.078,183.108 265.928,183.096 C267.341,183.077 268.761,183.069 270.178,183.096 C271.069,183.108 271.588,183.68 271.59,184.592 C271.598,186.047 271.598,187.504 271.59,188.953 C271.588,189.857 271.081,190.427 270.178,190.452 C268.761,190.497 267.345,190.497 265.935,190.46 C265.056,190.435 264.596,189.918 264.583,189.043 C264.575,188.285 264.583,187.531 264.583,186.775 C264.583,186.02 264.575,185.266 264.583,184.506 M316.055,221.85 C316.057,223.15 316.057,224.444 316.055,225.75 C316.051,226.944 315.418,227.571 314.216,227.571 C307.471,227.577 300.722,227.577 293.975,227.571 C292.802,227.571 292.203,226.993 292.187,225.84 C292.174,224.462 292.172,223.079 292.187,221.707 C292.203,220.685 292.765,220.148 293.801,220.148 C297.235,220.143 300.667,220.148 304.098,220.148 L314.336,220.148 C315.487,220.148 316.051,220.702 316.055,221.85 M314.222,215.169 L304.043,215.169 L293.863,215.169 C292.802,215.169 292.203,214.609 292.187,213.538 C292.168,212.129 292.172,210.709 292.187,209.292 C292.203,208.371 292.745,207.808 293.672,207.786 C294.97,207.761 296.27,207.774 297.568,207.774 L314.093,207.774 C315.561,207.774 316.055,208.262 316.055,209.711 C316.055,210.917 316.057,212.119 316.055,213.319 C316.051,214.59 315.475,215.169 314.222,215.169 M292.183,197.057 C292.195,195.958 292.732,195.431 293.846,195.431 L304.154,195.431 L314.279,195.431 C315.526,195.431 316.051,195.958 316.055,197.199 C316.057,198.482 316.057,199.764 316.055,201.051 C316.051,202.214 315.424,202.83 314.261,202.83 L293.934,202.83 C292.765,202.83 292.195,202.261 292.183,201.074 C292.174,199.739 292.174,198.402 292.183,197.057 M292.183,184.792 C292.187,183.606 292.702,183.089 293.879,183.083 L304.125,183.083 L314.318,183.083 C315.526,183.089 316.051,183.609 316.055,184.825 C316.057,186.102 316.057,187.388 316.051,188.663 C316.051,189.887 315.446,190.48 314.222,190.48 C307.471,190.488 300.718,190.488 293.959,190.48 C292.757,190.48 292.191,189.914 292.183,188.688 C292.174,187.394 292.176,186.09 292.183,184.792 M320.258,184.635 C320.272,183.733 320.949,183.096 321.87,183.089 C323.364,183.077 324.855,183.083 326.351,183.083 C327.808,183.083 329.263,183.083 330.708,183.089 C331.738,183.089 332.388,183.733 332.392,184.751 C332.397,186.09 332.397,187.422 332.392,188.761 C332.392,189.753 331.726,190.468 330.733,190.474 C327.771,190.497 324.801,190.497 321.838,190.474 C320.928,190.468 320.272,189.791 320.258,188.882 C320.235,187.469 320.235,186.047 320.258,184.635 M349.647,195.424 C349.7,195.416 349.756,195.388 349.841,195.359 L349.841,190.447 C349.576,190.447 349.353,190.452 349.122,190.447 C348.398,190.394 347.887,189.887 347.879,189.172 C347.861,187.557 347.861,185.947 347.879,184.338 C347.889,183.635 348.384,183.142 349.081,183.089 C349.328,183.077 349.572,183.089 349.823,183.089 L349.823,179.026 L336.591,179.026 L336.591,176.324 L271.57,176.324 L271.57,179.061 L258.816,179.061 L258.816,183.028 C260.081,183.228 260.385,183.592 260.385,184.839 L260.385,188.51 C260.385,189.975 260.224,190.194 258.834,190.556 L258.834,195.404 C259.883,195.514 260.361,195.917 260.377,196.769 C260.402,198.343 260.402,199.913 260.377,201.487 C260.367,202.271 259.895,202.735 259.128,202.83 C259.018,202.844 258.912,202.874 258.783,202.907 L258.783,205.317 L258.783,207.723 C260.095,207.952 260.385,208.303 260.385,209.572 L260.385,213.239 C260.385,214.707 260.218,214.932 258.783,215.303 L258.783,219.771 C258.783,219.884 258.805,219.994 258.812,220.101 C260.03,220.26 260.385,220.665 260.385,221.897 C260.387,223.142 260.385,224.383 260.385,225.627 C260.385,227.068 260.191,227.32 258.83,227.673 L258.83,231.698 L271.588,231.698 L271.588,235.8 L336.632,235.8 L336.632,231.657 L349.819,231.657 L349.819,227.616 C349.682,227.61 349.582,227.604 349.488,227.598 C348.323,227.561 347.879,227.115 347.879,225.963 C347.879,224.658 347.934,223.355 347.861,222.057 C347.787,220.63 348.364,220.039 349.715,220.139 C349.749,220.139 349.774,220.111 349.841,220.072 L349.841,215.269 C349.504,215.234 349.193,215.222 348.893,215.16 C348.268,215.015 347.879,214.555 347.879,213.922 C347.873,212.289 347.867,210.664 347.879,209.031 C347.887,208.399 348.347,207.892 348.981,207.808 C349.261,207.774 349.547,207.761 349.827,207.733 L349.827,202.86 C349.682,202.844 349.563,202.84 349.453,202.83 C348.261,202.799 347.879,202.4 347.879,201.194 L347.879,197.342 C347.879,195.778 348.102,195.533 349.647,195.424" fill="#005E58"/>
    </g>
    <path d="M358.158,307.735 L358.158,306.808 C358.158,306.522 357.926,306.289 357.634,306.289 L350.87,306.289 C350.34,306.289 349.821,306.392 349.5,306.446 C349.821,306.207 350.187,305.812 350.473,305.282 L357.579,292.969 C357.737,292.702 357.871,292.385 357.871,292.104 L357.871,291.149 C357.871,290.835 357.634,290.627 357.344,290.627 L348.45,290.627 C348.135,290.627 347.872,290.835 347.872,291.149 L347.872,292.023 C347.872,292.315 348.135,292.546 348.45,292.546 L354.502,292.546 C355.111,292.546 355.629,292.496 356.026,292.385 C355.713,292.653 355.316,293.051 355.053,293.498 L347.872,305.915 C347.759,306.1 347.633,306.364 347.633,306.654 L347.633,307.735 C347.633,308.019 347.872,308.262 348.158,308.262 L357.634,308.262 C357.926,308.262 358.158,308.019 358.158,307.735 M345.568,292.023 L345.568,291.149 C345.568,290.835 345.332,290.627 345.044,290.627 L334.913,290.627 C334.595,290.627 334.336,290.835 334.336,291.149 L334.336,292.023 C334.336,292.336 334.595,292.546 334.913,292.546 L338.909,292.546 L338.909,307.735 C338.909,308.019 339.172,308.262 339.464,308.262 L340.489,308.262 C340.779,308.262 341.044,308.019 341.044,307.735 L341.044,292.546 L345.044,292.546 C345.332,292.546 345.568,292.336 345.568,292.023 M331.983,307.706 L331.983,307.127 C331.983,306.836 331.771,306.573 331.458,306.573 L330.144,306.573 L330.144,292.315 L331.458,292.315 C331.771,292.315 331.983,292.046 331.983,291.756 L331.983,291.182 C331.983,290.89 331.771,290.627 331.458,290.627 L326.726,290.627 C326.405,290.627 326.194,290.89 326.194,291.182 L326.194,291.756 C326.194,292.046 326.405,292.315 326.726,292.315 L328.038,292.315 L328.038,306.573 L326.726,306.573 C326.405,306.573 326.194,306.836 326.194,307.127 L326.194,307.706 C326.194,307.998 326.405,308.262 326.726,308.262 L331.458,308.262 C331.771,308.262 331.983,307.998 331.983,307.706 M323.049,307.76 L323.049,291.129 C323.049,290.835 322.786,290.627 322.498,290.627 L321.573,290.627 C321.289,290.627 321.022,290.835 321.022,291.129 L321.022,302.835 C321.022,304.126 321.18,305.551 321.34,306.709 C321.022,305.812 320.73,304.628 320.207,303.445 L314.735,290.991 C314.63,290.758 314.412,290.627 314.124,290.627 L312.127,290.627 C311.812,290.627 311.572,290.785 311.572,291.129 L311.572,307.76 C311.572,308.019 311.835,308.262 312.127,308.262 L313.046,308.262 C313.342,308.262 313.601,308.019 313.601,307.76 L313.601,295.84 C313.601,294.837 313.423,293.078 313.281,291.945 C313.601,293.078 313.945,294.286 314.445,295.384 L320.024,307.84 C320.156,308.103 320.396,308.262 320.657,308.262 L322.498,308.262 C322.786,308.262 323.049,308.019 323.049,307.76 M307.409,307.813 L306.093,291.129 C306.066,290.785 305.826,290.627 305.513,290.627 L303.539,290.627 C303.276,290.627 303.041,290.812 302.984,291.048 L300.121,301.999 C299.884,302.865 299.806,303.998 299.726,304.969 C299.617,303.998 299.537,302.835 299.327,302.022 L296.462,291.048 C296.407,290.835 296.197,290.627 295.932,290.627 L293.904,290.627 C293.593,290.627 293.328,290.835 293.305,291.129 L291.96,307.735 C291.936,308.019 292.117,308.262 292.382,308.262 L293.696,308.262 C293.962,308.262 294.118,308.075 294.145,307.783 L294.906,295.548 C294.957,294.89 294.957,292.838 294.957,291.997 C295.117,292.889 295.222,294.392 295.541,295.548 L298.354,305.915 C298.461,306.289 298.593,306.446 298.908,306.446 L300.458,306.446 C300.779,306.446 300.908,306.289 301.015,305.915 L303.831,295.548 C304.117,294.471 304.275,292.735 304.38,291.997 C304.38,292.889 304.435,294.942 304.464,295.575 L305.147,307.813 C305.172,308.075 305.328,308.262 305.647,308.262 L307.039,308.262 C307.333,308.262 307.436,308.075 307.409,307.813 M288.563,307.735 L288.563,306.789 C288.563,306.472 288.296,306.234 287.977,306.234 L281.585,306.234 L281.585,299.892 L287.481,299.892 C287.8,299.892 288.035,299.655 288.035,299.308 L288.035,298.499 C288.035,298.205 287.8,297.965 287.481,297.965 L281.585,297.965 L281.585,292.599 L288.008,292.599 C288.351,292.599 288.563,292.336 288.563,292.023 L288.563,291.149 C288.563,290.835 288.296,290.627 288.008,290.627 L280.01,290.627 C279.716,290.627 279.455,290.835 279.455,291.149 L279.455,307.735 C279.455,308.019 279.716,308.262 280.01,308.262 L288.008,308.262 C288.296,308.262 288.563,308.019 288.563,307.735 M274.947,307.735 L274.947,291.149 C274.947,290.835 274.684,290.627 274.394,290.627 L273.396,290.627 C273.106,290.627 272.841,290.835 272.841,291.149 L272.841,297.965 L266.182,297.965 L266.182,291.149 C266.182,290.835 265.917,290.627 265.629,290.627 L264.627,290.627 C264.339,290.627 264.078,290.835 264.078,291.149 L264.078,307.735 C264.078,308.019 264.339,308.262 264.627,308.262 L265.629,308.262 C265.917,308.262 266.182,308.019 266.182,307.735 L266.182,299.863 L272.841,299.863 L272.841,307.735 C272.841,308.019 273.106,308.262 273.396,308.262 L274.394,308.262 C274.684,308.262 274.947,308.019 274.947,307.735 M260.6,307.046 L260.129,306.049 C260.022,305.837 259.784,305.705 259.467,305.866 C259.021,306.072 258.021,306.364 257.312,306.364 C254.706,306.364 252.837,304.288 252.837,299.338 C252.837,294.524 254.416,292.467 257.363,292.467 C258.178,292.467 258.784,292.681 259.389,292.969 C259.704,293.13 259.971,293.019 260.101,292.76 L260.522,291.945 C260.679,291.651 260.572,291.334 260.312,291.182 C259.389,290.627 258.313,290.497 257.285,290.497 C253.258,290.497 250.466,293.759 250.466,299.308 C250.466,305.101 252.917,308.393 257.127,308.393 C258.733,308.393 259.677,308.019 260.364,307.682 C260.572,307.577 260.73,307.338 260.6,307.046" fill="#005E58" id="Chemnitz"/>
    <path d="M440.562,261.358 L440.562,260.498 C440.562,260.186 440.329,259.977 440.041,259.977 L430.026,259.977 C429.715,259.977 429.457,260.186 429.457,260.498 L429.457,261.358 C429.457,261.671 429.715,261.879 430.026,261.879 L433.981,261.879 L433.981,276.882 C433.981,277.172 434.241,277.409 434.528,277.409 L435.543,277.409 C435.828,277.409 436.09,277.172 436.09,276.882 L436.09,261.879 L440.041,261.879 C440.329,261.879 440.562,261.671 440.562,261.358 M426.375,257.818 C426.375,257.12 425.829,256.595 425.102,256.595 C424.475,256.595 423.905,257.12 423.905,257.818 C423.905,258.549 424.475,259.094 425.125,259.094 C425.856,259.094 426.375,258.549 426.375,257.818 M421.826,257.818 C421.826,257.12 421.276,256.595 420.547,256.595 C419.925,256.595 419.354,257.12 419.354,257.818 C419.354,258.549 419.925,259.094 420.574,259.094 C421.303,259.094 421.826,258.549 421.826,257.818 M425.204,270.776 L420.339,270.776 L422.343,263.231 C422.524,262.556 422.653,261.821 422.732,261.098 C422.84,261.798 422.943,262.583 423.126,263.231 z M429.368,276.836 L424.267,260.498 C424.161,260.136 423.853,259.977 423.567,259.977 L421.93,259.977 C421.641,259.977 421.331,260.136 421.224,260.498 L416.441,276.836 C416.334,277.149 416.52,277.409 416.803,277.409 L418.079,277.409 C418.367,277.409 418.625,277.172 418.702,276.882 L419.875,272.542 L425.698,272.542 L426.947,276.882 C427.027,277.172 427.364,277.409 427.651,277.409 L429.001,277.409 C429.288,277.409 429.468,277.149 429.368,276.836 M416.792,261.358 L416.792,260.498 C416.792,260.186 416.557,259.977 416.276,259.977 L406.26,259.977 C405.95,259.977 405.688,260.186 405.688,260.498 L405.688,261.358 C405.688,261.671 405.95,261.879 406.26,261.879 L410.213,261.879 L410.213,276.882 C410.213,277.172 410.47,277.409 410.761,277.409 L411.773,277.409 C412.057,277.409 412.317,277.172 412.317,276.882 L412.317,261.879 L416.276,261.879 C416.557,261.879 416.792,261.671 416.792,261.358 M403.366,276.862 L403.366,276.289 C403.366,275.997 403.157,275.743 402.847,275.743 L401.549,275.743 L401.549,261.644 L402.847,261.644 C403.157,261.644 403.366,261.387 403.366,261.098 L403.366,260.523 C403.366,260.238 403.157,259.977 402.847,259.977 L398.165,259.977 C397.853,259.977 397.644,260.238 397.644,260.523 L397.644,261.098 C397.644,261.387 397.853,261.644 398.165,261.644 L399.465,261.644 L399.465,275.743 L398.165,275.743 C397.853,275.743 397.644,275.997 397.644,276.289 L397.644,276.862 C397.644,277.149 397.853,277.409 398.165,277.409 L402.847,277.409 C403.157,277.409 403.366,277.149 403.366,276.862 M395.437,272.542 C395.437,269.757 394.083,268.639 392.161,267.808 L390.728,267.181 C389.274,266.559 388.05,265.938 388.05,264.405 C388.05,262.789 388.931,261.821 391.063,261.821 C392.13,261.821 392.89,262.06 393.746,262.32 C393.954,262.37 394.266,262.191 394.341,261.9 L394.55,261.071 C394.627,260.785 394.473,260.473 394.241,260.396 C393.46,260.136 392.13,259.85 391.063,259.85 C387.683,259.85 385.811,261.821 385.811,264.48 C385.811,267.392 387.787,268.331 389.687,269.133 L390.909,269.653 C392.286,270.253 393.148,271.009 393.148,272.619 C393.148,274.364 392.08,275.535 389.999,275.535 C388.699,275.535 387.45,275.114 386.515,274.779 C386.15,274.65 385.917,274.858 385.838,275.145 L385.58,276.155 C385.503,276.445 385.603,276.676 385.942,276.807 C386.931,277.172 388.547,277.532 389.976,277.532 C393.796,277.532 395.437,275.17 395.437,272.542 M379.598,264.53 C379.598,266.456 378.324,267.575 376.27,267.575 L373.748,267.575 L373.748,261.879 L376.555,261.879 C378.561,261.879 379.598,262.997 379.598,264.53 M382.822,276.782 C381.779,273.869 381.006,271.896 380.769,271.399 C380.2,270.176 379.157,268.825 377.597,268.562 C379.936,268.408 381.756,266.79 381.756,264.216 C381.756,262.583 380.85,259.977 376.582,259.977 L372.186,259.977 C371.899,259.977 371.64,260.186 371.64,260.498 L371.64,276.882 C371.64,277.172 371.899,277.409 372.186,277.409 L373.202,277.409 C373.484,277.409 373.748,277.172 373.748,276.882 L373.748,269.445 L375.123,269.445 C377.049,269.445 377.853,270.593 378.455,271.657 C379.207,272.986 379.702,274.831 380.433,277.093 C380.508,277.328 380.694,277.409 380.898,277.409 L382.46,277.409 C382.849,277.409 382.955,277.149 382.822,276.782 M368.216,276.882 L368.216,275.951 C368.216,275.639 367.958,275.406 367.644,275.406 L361.325,275.406 L361.325,269.133 L367.152,269.133 C367.463,269.133 367.698,268.902 367.698,268.562 L367.698,267.756 C367.698,267.473 367.463,267.238 367.152,267.238 L361.325,267.238 L361.325,261.933 L367.667,261.933 C368.01,261.933 368.216,261.671 368.216,261.358 L368.216,260.498 C368.216,260.186 367.958,259.977 367.667,259.977 L359.763,259.977 C359.476,259.977 359.221,260.186 359.221,260.498 L359.221,276.882 C359.221,277.172 359.476,277.409 359.763,277.409 L367.667,277.409 C367.958,277.409 368.216,277.172 368.216,276.882 M356.222,260.498 C356.302,260.213 356.099,259.977 355.806,259.977 L354.688,259.977 C354.406,259.977 354.148,260.186 354.067,260.498 L350.683,273.092 C350.503,273.737 350.266,275.064 350.112,275.951 C349.983,275.035 349.75,273.737 349.564,273.092 L346.186,260.498 C346.084,260.136 345.847,259.977 345.507,259.977 L344.181,259.977 C343.899,259.977 343.689,260.213 343.791,260.523 L348.658,276.882 C348.737,277.172 349.071,277.409 349.358,277.409 L350.812,277.409 C351.103,277.409 351.439,277.172 351.516,276.882 z M341.586,276.862 L341.586,276.289 C341.586,275.997 341.375,275.743 341.061,275.743 L339.767,275.743 L339.767,261.644 L341.061,261.644 C341.375,261.644 341.586,261.387 341.586,261.098 L341.586,260.523 C341.586,260.238 341.375,259.977 341.061,259.977 L336.385,259.977 C336.071,259.977 335.86,260.238 335.86,260.523 L335.86,261.098 C335.86,261.387 336.071,261.644 336.385,261.644 L337.683,261.644 L337.683,275.743 L336.385,275.743 C336.071,275.743 335.86,275.997 335.86,276.289 L335.86,276.862 C335.86,277.149 336.071,277.409 336.385,277.409 L341.061,277.409 C341.375,277.409 341.586,277.149 341.586,276.862 M332.755,276.912 L332.755,260.473 C332.755,260.186 332.493,259.977 332.209,259.977 L331.303,259.977 C331.014,259.977 330.752,260.186 330.752,260.473 L330.752,272.051 C330.752,273.321 330.906,274.725 331.066,275.872 C330.752,274.987 330.466,273.817 329.946,272.648 L324.537,260.346 C324.433,260.111 324.222,259.977 323.935,259.977 L321.958,259.977 C321.648,259.977 321.417,260.136 321.417,260.473 L321.417,276.912 C321.417,277.172 321.673,277.409 321.958,277.409 L322.867,277.409 C323.16,277.409 323.418,277.172 323.418,276.912 L323.418,265.128 C323.418,264.141 323.239,262.399 323.106,261.279 C323.418,262.399 323.752,263.597 324.251,264.686 L329.762,276.989 C329.893,277.251 330.131,277.409 330.389,277.409 L332.209,277.409 C332.493,277.409 332.755,277.172 332.755,276.912 M316.983,272.178 L316.983,260.498 C316.983,260.186 316.723,259.977 316.437,259.977 L315.446,259.977 C315.163,259.977 314.902,260.186 314.902,260.498 L314.902,272.023 C314.902,275.114 313.447,275.743 311.522,275.743 C309.023,275.743 308.246,274.208 308.246,271.711 L308.246,260.498 C308.246,260.186 307.982,259.977 307.696,259.977 L306.707,259.977 C306.42,259.977 306.164,260.186 306.164,260.498 L306.164,272.178 C306.164,275.456 307.696,277.532 311.522,277.532 C315.136,277.532 316.983,275.608 316.983,272.178 M295.425,276.882 L295.425,275.951 C295.425,275.639 295.159,275.406 294.849,275.406 L288.53,275.406 L288.53,269.133 L294.357,269.133 C294.667,269.133 294.901,268.902 294.901,268.562 L294.901,267.756 C294.901,267.473 294.667,267.238 294.357,267.238 L288.53,267.238 L288.53,261.933 L294.873,261.933 C295.213,261.933 295.425,261.671 295.425,261.358 L295.425,260.498 C295.425,260.186 295.159,259.977 294.873,259.977 L286.968,259.977 C286.682,259.977 286.424,260.186 286.424,260.498 L286.424,276.882 C286.424,277.172 286.682,277.409 286.968,277.409 L294.873,277.409 C295.159,277.409 295.425,277.172 295.425,276.882 M281.971,276.882 L281.971,260.498 C281.971,260.186 281.713,259.977 281.424,259.977 L280.436,259.977 C280.149,259.977 279.889,260.186 279.889,260.498 L279.889,267.238 L273.308,267.238 L273.308,260.498 C273.308,260.186 273.049,259.977 272.76,259.977 L271.775,259.977 C271.487,259.977 271.227,260.186 271.227,260.498 L271.227,276.882 C271.227,277.172 271.487,277.409 271.775,277.409 L272.76,277.409 C273.049,277.409 273.308,277.172 273.308,276.882 L273.308,269.106 L279.889,269.106 L279.889,276.882 C279.889,277.172 280.149,277.409 280.436,277.409 L281.424,277.409 C281.713,277.409 281.971,277.172 281.971,276.882 M267.791,276.208 L267.32,275.224 C267.216,275.018 266.983,274.881 266.672,275.035 C266.229,275.247 265.243,275.535 264.54,275.535 C261.963,275.535 260.116,273.483 260.116,268.593 C260.116,263.826 261.678,261.798 264.589,261.798 C265.396,261.798 265.997,262.01 266.593,262.291 C266.905,262.449 267.166,262.349 267.297,262.087 L267.712,261.279 C267.868,260.992 267.766,260.679 267.505,260.523 C266.593,259.977 265.529,259.85 264.512,259.85 C260.533,259.85 257.775,263.076 257.775,268.562 C257.775,274.285 260.197,277.532 264.358,277.532 C265.943,277.532 266.882,277.172 267.555,276.836 C267.766,276.728 267.922,276.495 267.791,276.208 M254.853,272.542 C254.853,269.757 253.501,268.639 251.577,267.808 L250.148,267.181 C248.691,266.559 247.468,265.938 247.468,264.405 C247.468,262.789 248.351,261.821 250.484,261.821 C251.55,261.821 252.304,262.06 253.162,262.32 C253.372,262.37 253.681,262.191 253.76,261.9 L253.972,261.071 C254.047,260.785 253.891,260.473 253.66,260.396 C252.877,260.136 251.55,259.85 250.484,259.85 C247.103,259.85 245.231,261.821 245.231,264.48 C245.231,267.392 247.204,268.331 249.105,269.133 L250.327,269.653 C251.706,270.253 252.564,271.009 252.564,272.619 C252.564,274.364 251.5,275.535 249.419,275.535 C248.118,275.535 246.866,275.114 245.933,274.779 C245.569,274.65 245.333,274.858 245.256,275.145 L244.996,276.155 C244.919,276.445 245.023,276.676 245.36,276.807 C246.348,277.172 247.962,277.532 249.392,277.532 C253.216,277.532 254.853,275.17 254.853,272.542 M242.345,276.862 L242.345,276.289 C242.345,275.997 242.134,275.743 241.824,275.743 L240.524,275.743 L240.524,261.644 L241.824,261.644 C242.134,261.644 242.345,261.387 242.345,261.098 L242.345,260.523 C242.345,260.238 242.134,259.977 241.824,259.977 L237.144,259.977 C236.83,259.977 236.622,260.238 236.622,260.523 L236.622,261.098 C236.622,261.387 236.83,261.644 237.144,261.644 L238.44,261.644 L238.44,275.743 L237.144,275.743 C236.83,275.743 236.622,275.997 236.622,276.289 L236.622,276.862 C236.622,277.149 236.83,277.409 237.144,277.409 L241.824,277.409 C242.134,277.409 242.345,277.149 242.345,276.862 M233.516,276.912 L233.516,260.473 C233.516,260.186 233.254,259.977 232.969,259.977 L232.056,259.977 C231.771,259.977 231.509,260.186 231.509,260.473 L231.509,272.051 C231.509,273.321 231.667,274.725 231.821,275.872 C231.509,274.987 231.225,273.817 230.707,272.648 L225.292,260.346 C225.19,260.111 224.982,259.977 224.696,259.977 L222.722,259.977 C222.407,259.977 222.174,260.136 222.174,260.473 L222.174,276.912 C222.174,277.172 222.432,277.409 222.722,277.409 L223.628,277.409 C223.915,277.409 224.175,277.172 224.175,276.912 L224.175,265.128 C224.175,264.141 223.994,262.399 223.863,261.279 C224.175,262.399 224.515,263.597 225.007,264.686 L230.521,276.989 C230.651,277.251 230.886,277.409 231.146,277.409 L232.969,277.409 C233.254,277.409 233.516,277.172 233.516,276.912 M217.721,276.882 L217.721,260.498 C217.721,260.186 217.459,259.977 217.174,259.977 L216.186,259.977 C215.899,259.977 215.639,260.186 215.639,260.498 L215.639,267.238 L209.06,267.238 L209.06,260.498 C209.06,260.186 208.799,259.977 208.514,259.977 L207.523,259.977 C207.239,259.977 206.977,260.186 206.977,260.498 L206.977,276.882 C206.977,277.172 207.239,277.409 207.523,277.409 L208.514,277.409 C208.799,277.409 209.06,277.172 209.06,276.882 L209.06,269.106 L215.639,269.106 L215.639,276.882 C215.639,277.172 215.899,277.409 216.186,277.409 L217.174,277.409 C217.459,277.409 217.721,277.172 217.721,276.882 M203.543,276.208 L203.076,275.224 C202.97,275.018 202.735,274.881 202.424,275.035 C201.983,275.247 200.995,275.535 200.289,275.535 C197.72,275.535 195.87,273.483 195.87,268.593 C195.87,263.826 197.432,261.798 200.342,261.798 C201.152,261.798 201.749,262.01 202.347,262.291 C202.66,262.449 202.92,262.349 203.049,262.087 L203.466,261.279 C203.622,260.992 203.516,260.679 203.255,260.523 C202.347,259.977 201.281,259.85 200.267,259.85 C196.283,259.85 193.527,263.076 193.527,268.562 C193.527,274.285 195.949,277.532 200.11,277.532 C201.697,277.532 202.632,277.172 203.309,276.836 C203.516,276.728 203.672,276.495 203.543,276.208 M190.766,276.882 L190.766,275.951 C190.766,275.639 190.507,275.406 190.195,275.406 L183.874,275.406 L183.874,269.133 L189.703,269.133 C190.012,269.133 190.245,268.902 190.245,268.562 L190.245,267.756 C190.245,267.473 190.012,267.238 189.703,267.238 L183.874,267.238 L183.874,261.933 L190.22,261.933 C190.559,261.933 190.766,261.671 190.766,261.358 L190.766,260.498 C190.766,260.186 190.507,259.977 190.22,259.977 L182.314,259.977 C182.027,259.977 181.77,260.186 181.77,260.498 L181.77,276.882 C181.77,277.172 182.027,277.409 182.314,277.409 L190.22,277.409 C190.507,277.409 190.766,277.172 190.766,276.882 M179.167,261.358 L179.167,260.498 C179.167,260.186 178.932,259.977 178.647,259.977 L168.633,259.977 C168.321,259.977 168.062,260.186 168.062,260.498 L168.062,261.358 C168.062,261.671 168.321,261.879 168.633,261.879 L172.588,261.879 L172.588,276.882 C172.588,277.172 172.848,277.409 173.134,277.409 L174.15,277.409 C174.435,277.409 174.694,277.172 174.694,276.882 L174.694,261.879 L178.647,261.879 C178.932,261.879 179.167,261.671 179.167,261.358" fill="#005E58" id="Technische_Uni"/>
  </g>
</svg>
